<mxfile host="app.diagrams.net" modified="2022-03-09T17:37:06.359Z" agent="5.0 (Windows NT 10.0; Win64; x64) AppleWebKit/537.36 (KHTML, like Gecko) Chrome/97.0.4692.99 Safari/537.36 OPR/83.0.4254.70 (Edition Yx GX 03)" etag="HV7oLKC7MvvqvdzoXrMz" version="17.0.0" type="github">
  <diagram id="C5RBs43oDa-KdzZeNtuy" name="Page-1">
    <mxGraphModel dx="1543" dy="2038" grid="1" gridSize="10" guides="1" tooltips="1" connect="1" arrows="1" fold="1" page="1" pageScale="1" pageWidth="827" pageHeight="1169" math="0" shadow="0">
      <root>
        <mxCell id="WIyWlLk6GJQsqaUBKTNV-0" />
        <mxCell id="WIyWlLk6GJQsqaUBKTNV-1" parent="WIyWlLk6GJQsqaUBKTNV-0" />
        <mxCell id="_j7C8bdsk83C7GOWMhXm-13" style="edgeStyle=orthogonalEdgeStyle;rounded=0;orthogonalLoop=1;jettySize=auto;html=1;entryX=0.5;entryY=0;entryDx=0;entryDy=0;" parent="WIyWlLk6GJQsqaUBKTNV-1" source="_j7C8bdsk83C7GOWMhXm-0" target="_j7C8bdsk83C7GOWMhXm-11" edge="1">
          <mxGeometry relative="1" as="geometry" />
        </mxCell>
        <mxCell id="_j7C8bdsk83C7GOWMhXm-0" value="int main()" style="ellipse;whiteSpace=wrap;html=1;" parent="WIyWlLk6GJQsqaUBKTNV-1" vertex="1">
          <mxGeometry x="260" y="70" width="120" height="80" as="geometry" />
        </mxCell>
        <mxCell id="_j7C8bdsk83C7GOWMhXm-1" value="" style="endArrow=classic;html=1;rounded=0;entryX=0.5;entryY=0;entryDx=0;entryDy=0;" parent="WIyWlLk6GJQsqaUBKTNV-1" target="_j7C8bdsk83C7GOWMhXm-0" edge="1">
          <mxGeometry width="50" height="50" relative="1" as="geometry">
            <mxPoint x="320" as="sourcePoint" />
            <mxPoint x="440" y="270" as="targetPoint" />
          </mxGeometry>
        </mxCell>
        <mxCell id="_j7C8bdsk83C7GOWMhXm-4" value="" style="endArrow=none;dashed=1;html=1;rounded=0;" parent="WIyWlLk6GJQsqaUBKTNV-1" edge="1">
          <mxGeometry width="50" height="50" relative="1" as="geometry">
            <mxPoint x="320" y="40" as="sourcePoint" />
            <mxPoint x="440" y="40" as="targetPoint" />
          </mxGeometry>
        </mxCell>
        <mxCell id="_j7C8bdsk83C7GOWMhXm-5" value="" style="endArrow=none;dashed=1;html=1;rounded=0;" parent="WIyWlLk6GJQsqaUBKTNV-1" edge="1">
          <mxGeometry width="50" height="50" relative="1" as="geometry">
            <mxPoint x="440" y="80" as="sourcePoint" />
            <mxPoint x="440" as="targetPoint" />
          </mxGeometry>
        </mxCell>
        <mxCell id="_j7C8bdsk83C7GOWMhXm-6" value="&lt;div&gt;#include &amp;lt;iostream&amp;gt;&lt;/div&gt;&lt;div&gt;#include &amp;lt;ctime&amp;gt;&lt;br&gt;&lt;/div&gt;&lt;div&gt;using namespace std;&lt;/div&gt;&lt;div&gt;&lt;div&gt;&lt;span&gt;	&lt;/span&gt;setlocale(LC_ALL, &quot;Rus&quot;);&lt;/div&gt;&lt;div&gt;&lt;span&gt;	&lt;/span&gt;srand(unsigned(time(0)));&lt;/div&gt;&lt;/div&gt;" style="text;html=1;align=center;verticalAlign=middle;resizable=0;points=[];autosize=1;strokeColor=none;fillColor=none;" parent="WIyWlLk6GJQsqaUBKTNV-1" vertex="1">
          <mxGeometry x="440" width="150" height="80" as="geometry" />
        </mxCell>
        <mxCell id="_j7C8bdsk83C7GOWMhXm-7" value="" style="endArrow=none;dashed=1;html=1;rounded=0;" parent="WIyWlLk6GJQsqaUBKTNV-1" edge="1">
          <mxGeometry width="50" height="50" relative="1" as="geometry">
            <mxPoint x="440" y="80" as="sourcePoint" />
            <mxPoint x="520" y="80" as="targetPoint" />
            <Array as="points">
              <mxPoint x="480" y="80" />
            </Array>
          </mxGeometry>
        </mxCell>
        <mxCell id="_j7C8bdsk83C7GOWMhXm-8" value="" style="endArrow=none;dashed=1;html=1;rounded=0;" parent="WIyWlLk6GJQsqaUBKTNV-1" edge="1">
          <mxGeometry width="50" height="50" relative="1" as="geometry">
            <mxPoint x="440" y="-1" as="sourcePoint" />
            <mxPoint x="520" y="-1" as="targetPoint" />
          </mxGeometry>
        </mxCell>
        <mxCell id="_j7C8bdsk83C7GOWMhXm-15" style="edgeStyle=orthogonalEdgeStyle;rounded=0;orthogonalLoop=1;jettySize=auto;html=1;" parent="WIyWlLk6GJQsqaUBKTNV-1" source="_j7C8bdsk83C7GOWMhXm-11" target="_j7C8bdsk83C7GOWMhXm-14" edge="1">
          <mxGeometry relative="1" as="geometry" />
        </mxCell>
        <mxCell id="_j7C8bdsk83C7GOWMhXm-11" value="int const size = 10;" style="rounded=0;whiteSpace=wrap;html=1;" parent="WIyWlLk6GJQsqaUBKTNV-1" vertex="1">
          <mxGeometry x="265" y="170" width="110" height="20" as="geometry" />
        </mxCell>
        <mxCell id="_j7C8bdsk83C7GOWMhXm-12" value="{" style="text;html=1;align=center;verticalAlign=middle;resizable=0;points=[];autosize=1;strokeColor=none;fillColor=none;" parent="WIyWlLk6GJQsqaUBKTNV-1" vertex="1">
          <mxGeometry x="340" y="150" width="20" height="20" as="geometry" />
        </mxCell>
        <mxCell id="_j7C8bdsk83C7GOWMhXm-17" style="edgeStyle=orthogonalEdgeStyle;rounded=0;orthogonalLoop=1;jettySize=auto;html=1;" parent="WIyWlLk6GJQsqaUBKTNV-1" source="_j7C8bdsk83C7GOWMhXm-14" target="_j7C8bdsk83C7GOWMhXm-16" edge="1">
          <mxGeometry relative="1" as="geometry" />
        </mxCell>
        <mxCell id="_j7C8bdsk83C7GOWMhXm-14" value="int arr[size];" style="rounded=0;whiteSpace=wrap;html=1;" parent="WIyWlLk6GJQsqaUBKTNV-1" vertex="1">
          <mxGeometry x="285" y="210" width="70" height="20" as="geometry" />
        </mxCell>
        <mxCell id="_j7C8bdsk83C7GOWMhXm-19" style="edgeStyle=orthogonalEdgeStyle;rounded=0;orthogonalLoop=1;jettySize=auto;html=1;" parent="WIyWlLk6GJQsqaUBKTNV-1" source="_j7C8bdsk83C7GOWMhXm-16" target="_j7C8bdsk83C7GOWMhXm-18" edge="1">
          <mxGeometry relative="1" as="geometry" />
        </mxCell>
        <mxCell id="_j7C8bdsk83C7GOWMhXm-25" style="edgeStyle=orthogonalEdgeStyle;rounded=0;orthogonalLoop=1;jettySize=auto;html=1;entryX=0.5;entryY=0;entryDx=0;entryDy=0;" parent="WIyWlLk6GJQsqaUBKTNV-1" source="_j7C8bdsk83C7GOWMhXm-16" target="_j7C8bdsk83C7GOWMhXm-23" edge="1">
          <mxGeometry relative="1" as="geometry">
            <mxPoint x="320" y="380" as="targetPoint" />
            <Array as="points">
              <mxPoint x="440" y="265" />
              <mxPoint x="440" y="350" />
              <mxPoint x="320" y="350" />
            </Array>
          </mxGeometry>
        </mxCell>
        <mxCell id="_j7C8bdsk83C7GOWMhXm-16" value="for (int i = 0; i &amp;lt; size; i++)" style="shape=hexagon;perimeter=hexagonPerimeter2;whiteSpace=wrap;html=1;fixedSize=1;" parent="WIyWlLk6GJQsqaUBKTNV-1" vertex="1">
          <mxGeometry x="245" y="250" width="150" height="30" as="geometry" />
        </mxCell>
        <mxCell id="_j7C8bdsk83C7GOWMhXm-27" style="edgeStyle=orthogonalEdgeStyle;rounded=0;orthogonalLoop=1;jettySize=auto;html=1;exitX=0.5;exitY=1;exitDx=0;exitDy=0;entryX=0;entryY=0.5;entryDx=0;entryDy=0;" parent="WIyWlLk6GJQsqaUBKTNV-1" source="_j7C8bdsk83C7GOWMhXm-18" target="_j7C8bdsk83C7GOWMhXm-16" edge="1">
          <mxGeometry relative="1" as="geometry">
            <mxPoint x="320" y="240" as="targetPoint" />
            <Array as="points">
              <mxPoint x="320" y="340" />
              <mxPoint x="210" y="340" />
              <mxPoint x="210" y="265" />
            </Array>
          </mxGeometry>
        </mxCell>
        <mxCell id="_j7C8bdsk83C7GOWMhXm-18" value="arr[i] = rand() % 100 + 1;" style="rounded=0;whiteSpace=wrap;html=1;" parent="WIyWlLk6GJQsqaUBKTNV-1" vertex="1">
          <mxGeometry x="252.5" y="300" width="135" height="20" as="geometry" />
        </mxCell>
        <mxCell id="_j7C8bdsk83C7GOWMhXm-20" value="{&lt;br&gt;" style="text;html=1;align=center;verticalAlign=middle;resizable=0;points=[];autosize=1;strokeColor=none;fillColor=none;" parent="WIyWlLk6GJQsqaUBKTNV-1" vertex="1">
          <mxGeometry x="340" y="280" width="20" height="20" as="geometry" />
        </mxCell>
        <mxCell id="_j7C8bdsk83C7GOWMhXm-30" style="edgeStyle=orthogonalEdgeStyle;rounded=0;orthogonalLoop=1;jettySize=auto;html=1;entryX=0.5;entryY=0;entryDx=0;entryDy=0;" parent="WIyWlLk6GJQsqaUBKTNV-1" source="_j7C8bdsk83C7GOWMhXm-23" target="_j7C8bdsk83C7GOWMhXm-29" edge="1">
          <mxGeometry relative="1" as="geometry" />
        </mxCell>
        <mxCell id="_j7C8bdsk83C7GOWMhXm-23" value="cout &amp;lt;&amp;lt; &quot;Начальный массив: &quot;;" style="shape=parallelogram;perimeter=parallelogramPerimeter;whiteSpace=wrap;html=1;fixedSize=1;" parent="WIyWlLk6GJQsqaUBKTNV-1" vertex="1">
          <mxGeometry x="220" y="370" width="200" height="20" as="geometry" />
        </mxCell>
        <mxCell id="_j7C8bdsk83C7GOWMhXm-28" value="}&lt;br&gt;" style="text;html=1;align=center;verticalAlign=middle;resizable=0;points=[];autosize=1;strokeColor=none;fillColor=none;" parent="WIyWlLk6GJQsqaUBKTNV-1" vertex="1">
          <mxGeometry x="340" y="320" width="20" height="20" as="geometry" />
        </mxCell>
        <mxCell id="_j7C8bdsk83C7GOWMhXm-32" style="edgeStyle=orthogonalEdgeStyle;rounded=0;orthogonalLoop=1;jettySize=auto;html=1;" parent="WIyWlLk6GJQsqaUBKTNV-1" source="_j7C8bdsk83C7GOWMhXm-29" target="_j7C8bdsk83C7GOWMhXm-31" edge="1">
          <mxGeometry relative="1" as="geometry" />
        </mxCell>
        <mxCell id="_j7C8bdsk83C7GOWMhXm-39" style="edgeStyle=orthogonalEdgeStyle;rounded=0;orthogonalLoop=1;jettySize=auto;html=1;entryX=0.5;entryY=0;entryDx=0;entryDy=0;" parent="WIyWlLk6GJQsqaUBKTNV-1" source="_j7C8bdsk83C7GOWMhXm-29" target="_j7C8bdsk83C7GOWMhXm-38" edge="1">
          <mxGeometry relative="1" as="geometry">
            <mxPoint x="320" y="540" as="targetPoint" />
            <Array as="points">
              <mxPoint x="430" y="445" />
              <mxPoint x="430" y="540" />
              <mxPoint x="320" y="540" />
            </Array>
          </mxGeometry>
        </mxCell>
        <mxCell id="_j7C8bdsk83C7GOWMhXm-29" value="for (int i = 0; i &amp;lt; size; i++)" style="shape=hexagon;perimeter=hexagonPerimeter2;whiteSpace=wrap;html=1;fixedSize=1;" parent="WIyWlLk6GJQsqaUBKTNV-1" vertex="1">
          <mxGeometry x="245" y="420" width="150" height="30" as="geometry" />
        </mxCell>
        <mxCell id="_j7C8bdsk83C7GOWMhXm-36" style="edgeStyle=orthogonalEdgeStyle;rounded=0;orthogonalLoop=1;jettySize=auto;html=1;entryX=0;entryY=0.5;entryDx=0;entryDy=0;" parent="WIyWlLk6GJQsqaUBKTNV-1" source="_j7C8bdsk83C7GOWMhXm-31" target="_j7C8bdsk83C7GOWMhXm-29" edge="1">
          <mxGeometry relative="1" as="geometry">
            <mxPoint x="320" y="410" as="targetPoint" />
            <Array as="points">
              <mxPoint x="320" y="520" />
              <mxPoint x="220" y="520" />
              <mxPoint x="220" y="435" />
            </Array>
          </mxGeometry>
        </mxCell>
        <mxCell id="_j7C8bdsk83C7GOWMhXm-31" value="cout &amp;lt;&amp;lt; arr[i] &amp;lt;&amp;lt; &#39; &#39;;" style="shape=parallelogram;perimeter=parallelogramPerimeter;whiteSpace=wrap;html=1;fixedSize=1;" parent="WIyWlLk6GJQsqaUBKTNV-1" vertex="1">
          <mxGeometry x="252.5" y="470" width="130" height="20" as="geometry" />
        </mxCell>
        <mxCell id="_j7C8bdsk83C7GOWMhXm-33" value="{&lt;br&gt;" style="text;html=1;align=center;verticalAlign=middle;resizable=0;points=[];autosize=1;strokeColor=none;fillColor=none;" parent="WIyWlLk6GJQsqaUBKTNV-1" vertex="1">
          <mxGeometry x="340" y="450" width="20" height="20" as="geometry" />
        </mxCell>
        <mxCell id="_j7C8bdsk83C7GOWMhXm-34" value="}&lt;br&gt;" style="text;html=1;align=center;verticalAlign=middle;resizable=0;points=[];autosize=1;strokeColor=none;fillColor=none;" parent="WIyWlLk6GJQsqaUBKTNV-1" vertex="1">
          <mxGeometry x="340" y="490" width="20" height="20" as="geometry" />
        </mxCell>
        <mxCell id="_j7C8bdsk83C7GOWMhXm-41" style="edgeStyle=orthogonalEdgeStyle;rounded=0;orthogonalLoop=1;jettySize=auto;html=1;" parent="WIyWlLk6GJQsqaUBKTNV-1" source="_j7C8bdsk83C7GOWMhXm-38" target="_j7C8bdsk83C7GOWMhXm-40" edge="1">
          <mxGeometry relative="1" as="geometry" />
        </mxCell>
        <mxCell id="_j7C8bdsk83C7GOWMhXm-38" value="cout &amp;lt;&amp;lt; endl;" style="shape=parallelogram;perimeter=parallelogramPerimeter;whiteSpace=wrap;html=1;fixedSize=1;" parent="WIyWlLk6GJQsqaUBKTNV-1" vertex="1">
          <mxGeometry x="258.75" y="550" width="122.5" height="20" as="geometry" />
        </mxCell>
        <mxCell id="_j7C8bdsk83C7GOWMhXm-43" style="edgeStyle=orthogonalEdgeStyle;rounded=0;orthogonalLoop=1;jettySize=auto;html=1;" parent="WIyWlLk6GJQsqaUBKTNV-1" source="_j7C8bdsk83C7GOWMhXm-40" target="_j7C8bdsk83C7GOWMhXm-42" edge="1">
          <mxGeometry relative="1" as="geometry" />
        </mxCell>
        <mxCell id="_j7C8bdsk83C7GOWMhXm-49" style="edgeStyle=orthogonalEdgeStyle;rounded=0;orthogonalLoop=1;jettySize=auto;html=1;entryX=0.5;entryY=0;entryDx=0;entryDy=0;" parent="WIyWlLk6GJQsqaUBKTNV-1" source="_j7C8bdsk83C7GOWMhXm-40" target="_j7C8bdsk83C7GOWMhXm-48" edge="1">
          <mxGeometry relative="1" as="geometry">
            <mxPoint x="460" y="730" as="targetPoint" />
            <Array as="points">
              <mxPoint x="420" y="605" />
              <mxPoint x="420" y="700" />
              <mxPoint x="320" y="700" />
            </Array>
          </mxGeometry>
        </mxCell>
        <mxCell id="_j7C8bdsk83C7GOWMhXm-40" value="for (int i = 0; i &amp;lt; size; i++)" style="shape=hexagon;perimeter=hexagonPerimeter2;whiteSpace=wrap;html=1;fixedSize=1;" parent="WIyWlLk6GJQsqaUBKTNV-1" vertex="1">
          <mxGeometry x="242.5" y="590" width="155" height="30" as="geometry" />
        </mxCell>
        <mxCell id="_j7C8bdsk83C7GOWMhXm-44" style="edgeStyle=orthogonalEdgeStyle;rounded=0;orthogonalLoop=1;jettySize=auto;html=1;entryX=0;entryY=0.5;entryDx=0;entryDy=0;" parent="WIyWlLk6GJQsqaUBKTNV-1" source="_j7C8bdsk83C7GOWMhXm-42" target="_j7C8bdsk83C7GOWMhXm-40" edge="1">
          <mxGeometry relative="1" as="geometry">
            <mxPoint x="320" y="580" as="targetPoint" />
            <Array as="points">
              <mxPoint x="320" y="680" />
              <mxPoint x="220" y="680" />
              <mxPoint x="220" y="605" />
            </Array>
          </mxGeometry>
        </mxCell>
        <mxCell id="_j7C8bdsk83C7GOWMhXm-42" value="arr[i] = arr[i + 5];" style="rounded=0;whiteSpace=wrap;html=1;" parent="WIyWlLk6GJQsqaUBKTNV-1" vertex="1">
          <mxGeometry x="272.5" y="640" width="95" height="20" as="geometry" />
        </mxCell>
        <mxCell id="_j7C8bdsk83C7GOWMhXm-45" value="{&lt;br&gt;" style="text;html=1;align=center;verticalAlign=middle;resizable=0;points=[];autosize=1;strokeColor=none;fillColor=none;" parent="WIyWlLk6GJQsqaUBKTNV-1" vertex="1">
          <mxGeometry x="340" y="620" width="20" height="20" as="geometry" />
        </mxCell>
        <mxCell id="_j7C8bdsk83C7GOWMhXm-47" value="}&lt;br&gt;" style="text;html=1;align=center;verticalAlign=middle;resizable=0;points=[];autosize=1;strokeColor=none;fillColor=none;" parent="WIyWlLk6GJQsqaUBKTNV-1" vertex="1">
          <mxGeometry x="340" y="660" width="20" height="20" as="geometry" />
        </mxCell>
        <mxCell id="_j7C8bdsk83C7GOWMhXm-51" style="edgeStyle=orthogonalEdgeStyle;rounded=0;orthogonalLoop=1;jettySize=auto;html=1;" parent="WIyWlLk6GJQsqaUBKTNV-1" source="_j7C8bdsk83C7GOWMhXm-48" target="_j7C8bdsk83C7GOWMhXm-50" edge="1">
          <mxGeometry relative="1" as="geometry" />
        </mxCell>
        <mxCell id="_j7C8bdsk83C7GOWMhXm-56" style="edgeStyle=orthogonalEdgeStyle;rounded=0;orthogonalLoop=1;jettySize=auto;html=1;entryX=0.5;entryY=0;entryDx=0;entryDy=0;" parent="WIyWlLk6GJQsqaUBKTNV-1" source="_j7C8bdsk83C7GOWMhXm-48" target="_j7C8bdsk83C7GOWMhXm-55" edge="1">
          <mxGeometry relative="1" as="geometry">
            <mxPoint x="460" y="870" as="targetPoint" />
            <Array as="points">
              <mxPoint x="450" y="745" />
              <mxPoint x="450" y="840" />
              <mxPoint x="320" y="840" />
            </Array>
          </mxGeometry>
        </mxCell>
        <mxCell id="_j7C8bdsk83C7GOWMhXm-48" value="for (int i = size - 5; i &amp;lt; size - 5 + 3; i++)" style="shape=hexagon;perimeter=hexagonPerimeter2;whiteSpace=wrap;html=1;fixedSize=1;" parent="WIyWlLk6GJQsqaUBKTNV-1" vertex="1">
          <mxGeometry x="209" y="730" width="222" height="30" as="geometry" />
        </mxCell>
        <mxCell id="_j7C8bdsk83C7GOWMhXm-54" style="edgeStyle=orthogonalEdgeStyle;rounded=0;orthogonalLoop=1;jettySize=auto;html=1;entryX=0;entryY=0.5;entryDx=0;entryDy=0;" parent="WIyWlLk6GJQsqaUBKTNV-1" source="_j7C8bdsk83C7GOWMhXm-50" target="_j7C8bdsk83C7GOWMhXm-48" edge="1">
          <mxGeometry relative="1" as="geometry">
            <mxPoint x="320" y="720" as="targetPoint" />
            <Array as="points">
              <mxPoint x="320" y="820" />
              <mxPoint x="180" y="820" />
              <mxPoint x="180" y="745" />
            </Array>
          </mxGeometry>
        </mxCell>
        <mxCell id="_j7C8bdsk83C7GOWMhXm-50" value="arr[i] = rand() % 100 + 1;&lt;span&gt;	&lt;/span&gt;" style="rounded=0;whiteSpace=wrap;html=1;" parent="WIyWlLk6GJQsqaUBKTNV-1" vertex="1">
          <mxGeometry x="247.5" y="780" width="145" height="20" as="geometry" />
        </mxCell>
        <mxCell id="_j7C8bdsk83C7GOWMhXm-52" value="{&lt;br&gt;" style="text;html=1;align=center;verticalAlign=middle;resizable=0;points=[];autosize=1;strokeColor=none;fillColor=none;" parent="WIyWlLk6GJQsqaUBKTNV-1" vertex="1">
          <mxGeometry x="340" y="760" width="20" height="20" as="geometry" />
        </mxCell>
        <mxCell id="_j7C8bdsk83C7GOWMhXm-53" value="}" style="text;html=1;align=center;verticalAlign=middle;resizable=0;points=[];autosize=1;strokeColor=none;fillColor=none;" parent="WIyWlLk6GJQsqaUBKTNV-1" vertex="1">
          <mxGeometry x="340" y="800" width="20" height="20" as="geometry" />
        </mxCell>
        <mxCell id="_j7C8bdsk83C7GOWMhXm-58" style="edgeStyle=orthogonalEdgeStyle;rounded=0;orthogonalLoop=1;jettySize=auto;html=1;" parent="WIyWlLk6GJQsqaUBKTNV-1" source="_j7C8bdsk83C7GOWMhXm-55" target="_j7C8bdsk83C7GOWMhXm-57" edge="1">
          <mxGeometry relative="1" as="geometry" />
        </mxCell>
        <mxCell id="_j7C8bdsk83C7GOWMhXm-55" value="cout &amp;lt;&amp;lt; &quot;Конечный массив: &quot;;" style="shape=parallelogram;perimeter=parallelogramPerimeter;whiteSpace=wrap;html=1;fixedSize=1;" parent="WIyWlLk6GJQsqaUBKTNV-1" vertex="1">
          <mxGeometry x="220" y="860" width="200" height="30" as="geometry" />
        </mxCell>
        <mxCell id="_j7C8bdsk83C7GOWMhXm-60" style="edgeStyle=orthogonalEdgeStyle;rounded=0;orthogonalLoop=1;jettySize=auto;html=1;" parent="WIyWlLk6GJQsqaUBKTNV-1" source="_j7C8bdsk83C7GOWMhXm-57" target="_j7C8bdsk83C7GOWMhXm-59" edge="1">
          <mxGeometry relative="1" as="geometry" />
        </mxCell>
        <mxCell id="_j7C8bdsk83C7GOWMhXm-65" style="edgeStyle=orthogonalEdgeStyle;rounded=0;orthogonalLoop=1;jettySize=auto;html=1;entryX=0.5;entryY=0;entryDx=0;entryDy=0;" parent="WIyWlLk6GJQsqaUBKTNV-1" source="_j7C8bdsk83C7GOWMhXm-57" target="_j7C8bdsk83C7GOWMhXm-64" edge="1">
          <mxGeometry relative="1" as="geometry">
            <mxPoint x="450" y="1040" as="targetPoint" />
            <Array as="points">
              <mxPoint x="460" y="925" />
              <mxPoint x="460" y="1020" />
              <mxPoint x="320" y="1020" />
            </Array>
          </mxGeometry>
        </mxCell>
        <mxCell id="_j7C8bdsk83C7GOWMhXm-57" value="for (int i = 0; i &amp;lt; size - 5 + 3; i++)" style="shape=hexagon;perimeter=hexagonPerimeter2;whiteSpace=wrap;html=1;fixedSize=1;" parent="WIyWlLk6GJQsqaUBKTNV-1" vertex="1">
          <mxGeometry x="224" y="910" width="192" height="30" as="geometry" />
        </mxCell>
        <mxCell id="_j7C8bdsk83C7GOWMhXm-63" style="edgeStyle=orthogonalEdgeStyle;rounded=0;orthogonalLoop=1;jettySize=auto;html=1;entryX=0;entryY=0.5;entryDx=0;entryDy=0;" parent="WIyWlLk6GJQsqaUBKTNV-1" source="_j7C8bdsk83C7GOWMhXm-59" target="_j7C8bdsk83C7GOWMhXm-57" edge="1">
          <mxGeometry relative="1" as="geometry">
            <mxPoint x="320" y="900" as="targetPoint" />
            <Array as="points">
              <mxPoint x="320" y="1010" />
              <mxPoint x="200" y="1010" />
              <mxPoint x="200" y="925" />
            </Array>
          </mxGeometry>
        </mxCell>
        <mxCell id="_j7C8bdsk83C7GOWMhXm-59" value="cout &amp;lt;&amp;lt; arr[i] &amp;lt;&amp;lt; &#39; &#39;;" style="shape=parallelogram;perimeter=parallelogramPerimeter;whiteSpace=wrap;html=1;fixedSize=1;" parent="WIyWlLk6GJQsqaUBKTNV-1" vertex="1">
          <mxGeometry x="254" y="960" width="132" height="30" as="geometry" />
        </mxCell>
        <mxCell id="_j7C8bdsk83C7GOWMhXm-61" value="{&lt;br&gt;" style="text;html=1;align=center;verticalAlign=middle;resizable=0;points=[];autosize=1;strokeColor=none;fillColor=none;" parent="WIyWlLk6GJQsqaUBKTNV-1" vertex="1">
          <mxGeometry x="340" y="940" width="20" height="20" as="geometry" />
        </mxCell>
        <mxCell id="_j7C8bdsk83C7GOWMhXm-62" value="}" style="text;html=1;align=center;verticalAlign=middle;resizable=0;points=[];autosize=1;strokeColor=none;fillColor=none;" parent="WIyWlLk6GJQsqaUBKTNV-1" vertex="1">
          <mxGeometry x="340" y="990" width="20" height="20" as="geometry" />
        </mxCell>
        <mxCell id="_j7C8bdsk83C7GOWMhXm-67" style="edgeStyle=orthogonalEdgeStyle;rounded=0;orthogonalLoop=1;jettySize=auto;html=1;" parent="WIyWlLk6GJQsqaUBKTNV-1" source="_j7C8bdsk83C7GOWMhXm-64" target="_j7C8bdsk83C7GOWMhXm-66" edge="1">
          <mxGeometry relative="1" as="geometry" />
        </mxCell>
        <mxCell id="_j7C8bdsk83C7GOWMhXm-64" value="cout &amp;lt;&amp;lt; endl;" style="shape=parallelogram;perimeter=parallelogramPerimeter;whiteSpace=wrap;html=1;fixedSize=1;" parent="WIyWlLk6GJQsqaUBKTNV-1" vertex="1">
          <mxGeometry x="267.5" y="1040" width="105" height="20" as="geometry" />
        </mxCell>
        <mxCell id="_j7C8bdsk83C7GOWMhXm-66" value="return 0;" style="ellipse;whiteSpace=wrap;html=1;" parent="WIyWlLk6GJQsqaUBKTNV-1" vertex="1">
          <mxGeometry x="269" y="1080" width="102" height="51" as="geometry" />
        </mxCell>
        <mxCell id="_j7C8bdsk83C7GOWMhXm-68" value="}&lt;br&gt;" style="text;html=1;align=center;verticalAlign=middle;resizable=0;points=[];autosize=1;strokeColor=none;fillColor=none;" parent="WIyWlLk6GJQsqaUBKTNV-1" vertex="1">
          <mxGeometry x="340" y="1140" width="20" height="20" as="geometry" />
        </mxCell>
      </root>
    </mxGraphModel>
  </diagram>
</mxfile>
